<svg width="16" height="16" viewBox="0 0 16 16" fill="none" xmlns="http://www.w3.org/2000/svg">
<circle cx="8" cy="8" r="8" fill="#00DC00"/>
<path fill-rule="evenodd" clip-rule="evenodd" d="M8.10939 1.6001H8.10943C11.6898 1.6001 14.6192 4.52948 14.6192 8.10988V8.10996C14.6192 11.6904 11.6898 14.6198 8.10943 14.6198H8.10939C4.529 14.6198 1.59961 11.6904 1.59961 8.10996V8.10988C1.59961 4.52949 4.52899 1.6001 8.10939 1.6001Z" fill="black"/>
<path d="M5.89216 10.0675C5.51927 10.0675 5.18392 9.98795 4.88609 9.82879C4.58822 9.66966 4.35403 9.44228 4.1835 9.14673C4.013 8.85114 3.92773 8.50555 3.92773 8.10992C3.92773 7.71885 4.01413 7.37443 4.18694 7.07659C4.35972 6.77871 4.59618 6.55021 4.89629 6.39105C5.19641 6.23192 5.53292 6.15234 5.90581 6.15234C6.27866 6.15234 6.61517 6.23192 6.91528 6.39105C7.2154 6.55021 7.45187 6.77871 7.62469 7.07659C7.79746 7.37442 7.88389 7.71885 7.88389 8.10992C7.88389 8.50099 7.79634 8.84546 7.62128 9.1433C7.44619 9.44117 7.20747 9.66967 6.90507 9.8288C6.60268 9.98797 6.26505 10.0675 5.89217 10.0675L5.89216 10.0675ZM5.89216 9.05806C6.11498 9.05806 6.3048 8.97619 6.46168 8.81251C6.61856 8.64878 6.69702 8.4146 6.69702 8.10991C6.69702 7.80527 6.62085 7.57109 6.46853 7.40736C6.31617 7.24368 6.12862 7.16181 5.90581 7.16181C5.67842 7.16181 5.48972 7.24256 5.33964 7.40396C5.1896 7.56541 5.11458 7.80071 5.11458 8.10991C5.11458 8.4146 5.18844 8.64877 5.33624 8.81251C5.48403 8.97619 5.66934 9.05806 5.89216 9.05806ZM10.8237 6.16599C11.2693 6.16599 11.6251 6.31034 11.8911 6.59909C12.1572 6.88784 12.2902 7.28459 12.2902 7.78935V10.013H11.1306V7.94623C11.1306 7.69159 11.0647 7.49379 10.9328 7.3528C10.8009 7.21185 10.6236 7.14135 10.4008 7.14135C10.178 7.14135 10.0006 7.21184 9.86876 7.3528C9.73689 7.49379 9.67096 7.69159 9.67096 7.94623V10.013H8.50457V6.2069H9.67096V6.71166C9.78918 6.5434 9.94834 6.41038 10.1484 6.31262C10.3485 6.21487 10.5736 6.16599 10.8237 6.16599H10.8237Z" fill="#E6E7E8"/>
</svg>
